<?xml version="1.0" encoding="UTF-8" standalone="no"?>
<!DOCTYPE svg PUBLIC "-//W3C//DTD SVG 1.1//EN"
 "http://www.w3.org/Graphics/SVG/1.1/DTD/svg11.dtd">
<!-- Generated by graphviz version 12.2.1 (0)
 -->
<!-- Pages: 1 -->
<svg width="2011pt" height="980pt"
 viewBox="0.00 0.00 2011.12 980.00" xmlns="http://www.w3.org/2000/svg" xmlns:xlink="http://www.w3.org/1999/xlink">
<g id="graph0" class="graph" transform="scale(1 1) rotate(0) translate(4 976)">
<polygon fill="white" stroke="none" points="-4,4 -4,-976 2007.12,-976 2007.12,4 -4,4"/>
<!-- &#45;2026728908624053882 -->
<g id="node1" class="node">
<title>&#45;2026728908624053882</title>
<polygon fill="none" stroke="black" points="847.98,-972 365.32,-972 365.32,-936 847.98,-936 847.98,-972"/>
<text text-anchor="middle" x="606.65" y="-948" font-family="Helvetica,sans-Serif" font-size="20.00">Projection(Loc, [&#39;pickup_latitude&#39;, &#39;pickup_longitude&#39;])</text>
</g>
<!-- &#45;8836921695506005184 -->
<g id="node2" class="node">
<title>&#45;8836921695506005184</title>
<polygon fill="none" stroke="black" points="676.91,-900 536.4,-900 536.4,-864 676.91,-864 676.91,-900"/>
<text text-anchor="middle" x="606.65" y="-876" font-family="Helvetica,sans-Serif" font-size="20.00">Loc(Loc, And)</text>
</g>
<!-- &#45;8836921695506005184&#45;&gt;&#45;2026728908624053882 -->
<g id="edge1" class="edge">
<title>&#45;8836921695506005184&#45;&gt;&#45;2026728908624053882</title>
<path fill="none" stroke="black" d="M606.65,-900.3C606.65,-907.59 606.65,-916.27 606.65,-924.46"/>
<polygon fill="black" stroke="black" points="603.15,-924.38 606.65,-934.38 610.15,-924.38 603.15,-924.38"/>
</g>
<!-- &#45;3800977505275226627 -->
<g id="node3" class="node">
<title>&#45;3800977505275226627</title>
<polygon fill="none" stroke="black" points="805.5,-828 573.81,-828 573.81,-792 805.5,-792 805.5,-828"/>
<text text-anchor="middle" x="689.65" y="-804" font-family="Helvetica,sans-Serif" font-size="20.00">And(Between, Between)</text>
</g>
<!-- &#45;3800977505275226627&#45;&gt;&#45;8836921695506005184 -->
<g id="edge3" class="edge">
<title>&#45;3800977505275226627&#45;&gt;&#45;8836921695506005184</title>
<path fill="none" stroke="black" d="M669.14,-828.3C659.06,-836.8 646.75,-847.19 635.72,-856.49"/>
<polygon fill="black" stroke="black" points="633.77,-853.55 628.38,-862.68 638.28,-858.91 633.77,-853.55"/>
</g>
<!-- 1209321626910577534 -->
<g id="node4" class="node">
<title>1209321626910577534</title>
<polygon fill="none" stroke="black" points="787.7,-756 591.61,-756 591.61,-720 787.7,-720 787.7,-756"/>
<text text-anchor="middle" x="689.65" y="-732" font-family="Helvetica,sans-Serif" font-size="20.00">Between(Projection)</text>
</g>
<!-- 1209321626910577534&#45;&gt;&#45;3800977505275226627 -->
<g id="edge4" class="edge">
<title>1209321626910577534&#45;&gt;&#45;3800977505275226627</title>
<path fill="none" stroke="black" d="M689.65,-756.3C689.65,-763.59 689.65,-772.27 689.65,-780.46"/>
<polygon fill="black" stroke="black" points="686.15,-780.38 689.65,-790.38 693.15,-780.38 686.15,-780.38"/>
</g>
<!-- 2258417444114270214 -->
<g id="node5" class="node">
<title>2258417444114270214</title>
<polygon fill="none" stroke="black" points="827.16,-684 552.15,-684 552.15,-648 827.16,-648 827.16,-684"/>
<text text-anchor="middle" x="689.65" y="-660" font-family="Helvetica,sans-Serif" font-size="20.00">Projection(Loc, trip_distance)</text>
</g>
<!-- 2258417444114270214&#45;&gt;1209321626910577534 -->
<g id="edge6" class="edge">
<title>2258417444114270214&#45;&gt;1209321626910577534</title>
<path fill="none" stroke="black" d="M689.65,-684.3C689.65,-691.59 689.65,-700.27 689.65,-708.46"/>
<polygon fill="black" stroke="black" points="686.15,-708.38 689.65,-718.38 693.15,-708.38 686.15,-708.38"/>
</g>
<!-- &#45;4909512051203717309 -->
<g id="node6" class="node">
<title>&#45;4909512051203717309</title>
<polygon fill="none" stroke="black" points="788.25,-612 591.05,-612 591.05,-576 788.25,-576 788.25,-612"/>
<text text-anchor="middle" x="689.65" y="-588" font-family="Helvetica,sans-Serif" font-size="20.00">Loc(Projection, And)</text>
</g>
<!-- &#45;4909512051203717309&#45;&gt;&#45;8836921695506005184 -->
<g id="edge2" class="edge">
<title>&#45;4909512051203717309&#45;&gt;&#45;8836921695506005184</title>
<path fill="none" stroke="black" d="M590.65,-612.05C571.81,-619.91 554.35,-631.35 542.65,-648 521.31,-678.39 510.02,-702.59 564.65,-828 568.88,-837.7 575.33,-847.13 581.92,-855.29"/>
<polygon fill="black" stroke="black" points="579.16,-857.44 588.32,-862.75 584.47,-852.89 579.16,-857.44"/>
</g>
<!-- &#45;4909512051203717309&#45;&gt;2258417444114270214 -->
<g id="edge7" class="edge">
<title>&#45;4909512051203717309&#45;&gt;2258417444114270214</title>
<path fill="none" stroke="black" d="M689.65,-612.3C689.65,-619.59 689.65,-628.27 689.65,-636.46"/>
<polygon fill="black" stroke="black" points="686.15,-636.38 689.65,-646.38 693.15,-636.38 686.15,-636.38"/>
</g>
<!-- &#45;1645048277134544221 -->
<g id="node27" class="node">
<title>&#45;1645048277134544221</title>
<polygon fill="none" stroke="black" points="1118.61,-684 844.7,-684 844.7,-648 1118.61,-648 1118.61,-684"/>
<text text-anchor="middle" x="981.65" y="-660" font-family="Helvetica,sans-Serif" font-size="20.00">Projection(Loc, fare_amount)</text>
</g>
<!-- &#45;4909512051203717309&#45;&gt;&#45;1645048277134544221 -->
<g id="edge32" class="edge">
<title>&#45;4909512051203717309&#45;&gt;&#45;1645048277134544221</title>
<path fill="none" stroke="black" d="M762.58,-612.48C803.69,-622.34 855.2,-634.69 897.94,-644.93"/>
<polygon fill="black" stroke="black" points="896.88,-648.28 907.42,-647.2 898.51,-641.47 896.88,-648.28"/>
</g>
<!-- &#45;7292558223011403078 -->
<g id="node7" class="node">
<title>&#45;7292558223011403078</title>
<polygon fill="none" stroke="black" points="723.37,-540 533.94,-540 533.94,-504 723.37,-504 723.37,-540"/>
<text text-anchor="middle" x="628.65" y="-516" font-family="Helvetica,sans-Serif" font-size="20.00">And(And, Between)</text>
</g>
<!-- &#45;7292558223011403078&#45;&gt;&#45;4909512051203717309 -->
<g id="edge8" class="edge">
<title>&#45;7292558223011403078&#45;&gt;&#45;4909512051203717309</title>
<path fill="none" stroke="black" d="M643.73,-540.3C650.82,-548.44 659.43,-558.31 667.26,-567.3"/>
<polygon fill="black" stroke="black" points="664.55,-569.51 673.75,-574.75 669.82,-564.92 664.55,-569.51"/>
</g>
<!-- &#45;9096052359958462417 -->
<g id="node8" class="node">
<title>&#45;9096052359958462417</title>
<polygon fill="none" stroke="black" points="478.7,-468 282.61,-468 282.61,-432 478.7,-432 478.7,-468"/>
<text text-anchor="middle" x="380.65" y="-444" font-family="Helvetica,sans-Serif" font-size="20.00">Between(Projection)</text>
</g>
<!-- &#45;9096052359958462417&#45;&gt;&#45;7292558223011403078 -->
<g id="edge11" class="edge">
<title>&#45;9096052359958462417&#45;&gt;&#45;7292558223011403078</title>
<path fill="none" stroke="black" d="M442.6,-468.48C477.05,-478.21 520.12,-490.36 556.14,-500.53"/>
<polygon fill="black" stroke="black" points="555.04,-503.86 565.62,-503.21 556.94,-497.12 555.04,-503.86"/>
</g>
<!-- &#45;3832006602069216289 -->
<g id="node9" class="node">
<title>&#45;3832006602069216289</title>
<polygon fill="none" stroke="black" points="347.31,-252 0,-252 0,-216 347.31,-216 347.31,-252"/>
<text text-anchor="middle" x="173.65" y="-228" font-family="Helvetica,sans-Serif" font-size="20.00">Projection(Concat, dropoff_longitude)</text>
</g>
<!-- &#45;3832006602069216289&#45;&gt;&#45;9096052359958462417 -->
<g id="edge12" class="edge">
<title>&#45;3832006602069216289&#45;&gt;&#45;9096052359958462417</title>
<path fill="none" stroke="black" d="M190.24,-252.15C226.58,-289.72 313.35,-379.42 356.06,-423.57"/>
<polygon fill="black" stroke="black" points="353.46,-425.93 362.93,-430.68 358.5,-421.06 353.46,-425.93"/>
</g>
<!-- 8215418239835348239 -->
<g id="node10" class="node">
<title>8215418239835348239</title>
<polygon fill="none" stroke="black" points="1251.56,-180 519.74,-180 519.74,-144 1251.56,-144 1251.56,-180"/>
<text text-anchor="middle" x="885.65" y="-156" font-family="Helvetica,sans-Serif" font-size="20.00">Concat(ArrowStringConversion, ArrowStringConversion, ArrowStringConversion)</text>
</g>
<!-- 8215418239835348239&#45;&gt;&#45;3832006602069216289 -->
<g id="edge13" class="edge">
<title>8215418239835348239&#45;&gt;&#45;3832006602069216289</title>
<path fill="none" stroke="black" d="M707.82,-180.48C601.51,-190.94 466.63,-204.2 359,-214.78"/>
<polygon fill="black" stroke="black" points="358.8,-211.28 349.19,-215.74 359.48,-218.25 358.8,-211.28"/>
</g>
<!-- &#45;8641423358439902311 -->
<g id="node19" class="node">
<title>&#45;8641423358439902311</title>
<polygon fill="none" stroke="black" points="695.96,-252 365.34,-252 365.34,-216 695.96,-216 695.96,-252"/>
<text text-anchor="middle" x="530.65" y="-228" font-family="Helvetica,sans-Serif" font-size="20.00">Projection(Concat, dropoff_latitude)</text>
</g>
<!-- 8215418239835348239&#45;&gt;&#45;8641423358439902311 -->
<g id="edge23" class="edge">
<title>8215418239835348239&#45;&gt;&#45;8641423358439902311</title>
<path fill="none" stroke="black" d="M796.99,-180.48C746.28,-190.48 682.53,-203.05 630.12,-213.39"/>
<polygon fill="black" stroke="black" points="629.73,-209.9 620.6,-215.26 631.09,-216.76 629.73,-209.9"/>
</g>
<!-- 2436074204542269189 -->
<g id="node22" class="node">
<title>2436074204542269189</title>
<polygon fill="none" stroke="black" points="1057.08,-252 714.23,-252 714.23,-216 1057.08,-216 1057.08,-252"/>
<text text-anchor="middle" x="885.65" y="-228" font-family="Helvetica,sans-Serif" font-size="20.00">Projection(Concat, pickup_longitude)</text>
</g>
<!-- 8215418239835348239&#45;&gt;2436074204542269189 -->
<g id="edge27" class="edge">
<title>8215418239835348239&#45;&gt;2436074204542269189</title>
<path fill="none" stroke="black" d="M885.65,-180.3C885.65,-187.59 885.65,-196.27 885.65,-204.46"/>
<polygon fill="black" stroke="black" points="882.15,-204.38 885.65,-214.38 889.15,-204.38 882.15,-204.38"/>
</g>
<!-- &#45;6613341373772495771 -->
<g id="node24" class="node">
<title>&#45;6613341373772495771</title>
<polygon fill="none" stroke="black" points="1401.74,-252 1075.57,-252 1075.57,-216 1401.74,-216 1401.74,-252"/>
<text text-anchor="middle" x="1238.65" y="-228" font-family="Helvetica,sans-Serif" font-size="20.00">Projection(Concat, pickup_latitude)</text>
</g>
<!-- 8215418239835348239&#45;&gt;&#45;6613341373772495771 -->
<g id="edge29" class="edge">
<title>8215418239835348239&#45;&gt;&#45;6613341373772495771</title>
<path fill="none" stroke="black" d="M973.82,-180.48C1024.14,-190.46 1087.37,-203 1139.43,-213.32"/>
<polygon fill="black" stroke="black" points="1138.72,-216.75 1149.21,-215.26 1140.08,-209.88 1138.72,-216.75"/>
</g>
<!-- &#45;3723205657272414697 -->
<g id="node25" class="node">
<title>&#45;3723205657272414697</title>
<polygon fill="none" stroke="black" points="2003.12,-396 896.19,-396 896.19,-360 2003.12,-360 2003.12,-396"/>
<text text-anchor="middle" x="1449.65" y="-372" font-family="Helvetica,sans-Serif" font-size="20.00">Projection(Concat, [&#39;trip_distance&#39;, &#39;pickup_longitude&#39;, &#39;pickup_latitude&#39;, &#39;dropoff_longitude&#39;, &#39;dropoff_latitude&#39;, &#39;fare_amount&#39;])</text>
</g>
<!-- 8215418239835348239&#45;&gt;&#45;3723205657272414697 -->
<g id="edge30" class="edge">
<title>8215418239835348239&#45;&gt;&#45;3723205657272414697</title>
<path fill="none" stroke="black" d="M1204.3,-180.5C1303.98,-188.84 1392.83,-200.46 1410.65,-216 1448.44,-248.94 1452.85,-311.65 1451.82,-348.33"/>
<polygon fill="black" stroke="black" points="1448.33,-348.03 1451.37,-358.18 1455.32,-348.35 1448.33,-348.03"/>
</g>
<!-- 7789351015671906536 -->
<g id="node11" class="node">
<title>7789351015671906536</title>
<polygon fill="none" stroke="black" points="656.94,-108 236.36,-108 236.36,-72 656.94,-72 656.94,-108"/>
<text text-anchor="middle" x="446.65" y="-84" font-family="Helvetica,sans-Serif" font-size="20.00">ArrowStringConversion(FromMapProjectable)</text>
</g>
<!-- 7789351015671906536&#45;&gt;8215418239835348239 -->
<g id="edge14" class="edge">
<title>7789351015671906536&#45;&gt;8215418239835348239</title>
<path fill="none" stroke="black" d="M556.3,-108.48C619.8,-118.61 699.83,-131.37 765.09,-141.78"/>
<polygon fill="black" stroke="black" points="764.34,-145.2 774.77,-143.32 765.45,-138.29 764.34,-145.2"/>
</g>
<!-- &#45;5546081416561475937 -->
<g id="node12" class="node">
<title>&#45;5546081416561475937</title>
<polygon fill="none" stroke="black" points="547.47,-36 345.84,-36 345.84,0 547.47,0 547.47,-36"/>
<text text-anchor="middle" x="446.65" y="-12" font-family="Helvetica,sans-Serif" font-size="20.00">FromMapProjectable</text>
</g>
<!-- &#45;5546081416561475937&#45;&gt;7789351015671906536 -->
<g id="edge17" class="edge">
<title>&#45;5546081416561475937&#45;&gt;7789351015671906536</title>
<path fill="none" stroke="black" d="M446.65,-36.3C446.65,-43.59 446.65,-52.27 446.65,-60.46"/>
<polygon fill="black" stroke="black" points="443.15,-60.38 446.65,-70.38 450.15,-60.38 443.15,-60.38"/>
</g>
<!-- &#45;7108454062107749754 -->
<g id="node13" class="node">
<title>&#45;7108454062107749754</title>
<polygon fill="none" stroke="black" points="1095.94,-108 675.36,-108 675.36,-72 1095.94,-72 1095.94,-108"/>
<text text-anchor="middle" x="885.65" y="-84" font-family="Helvetica,sans-Serif" font-size="20.00">ArrowStringConversion(FromMapProjectable)</text>
</g>
<!-- &#45;7108454062107749754&#45;&gt;8215418239835348239 -->
<g id="edge15" class="edge">
<title>&#45;7108454062107749754&#45;&gt;8215418239835348239</title>
<path fill="none" stroke="black" d="M885.65,-108.3C885.65,-115.59 885.65,-124.27 885.65,-132.46"/>
<polygon fill="black" stroke="black" points="882.15,-132.38 885.65,-142.38 889.15,-132.38 882.15,-132.38"/>
</g>
<!-- 4540468987108600440 -->
<g id="node14" class="node">
<title>4540468987108600440</title>
<polygon fill="none" stroke="black" points="986.47,-36 784.84,-36 784.84,0 986.47,0 986.47,-36"/>
<text text-anchor="middle" x="885.65" y="-12" font-family="Helvetica,sans-Serif" font-size="20.00">FromMapProjectable</text>
</g>
<!-- 4540468987108600440&#45;&gt;&#45;7108454062107749754 -->
<g id="edge18" class="edge">
<title>4540468987108600440&#45;&gt;&#45;7108454062107749754</title>
<path fill="none" stroke="black" d="M885.65,-36.3C885.65,-43.59 885.65,-52.27 885.65,-60.46"/>
<polygon fill="black" stroke="black" points="882.15,-60.38 885.65,-70.38 889.15,-60.38 882.15,-60.38"/>
</g>
<!-- &#45;6852177275488112386 -->
<g id="node15" class="node">
<title>&#45;6852177275488112386</title>
<polygon fill="none" stroke="black" points="1534.94,-108 1114.36,-108 1114.36,-72 1534.94,-72 1534.94,-108"/>
<text text-anchor="middle" x="1324.65" y="-84" font-family="Helvetica,sans-Serif" font-size="20.00">ArrowStringConversion(FromMapProjectable)</text>
</g>
<!-- &#45;6852177275488112386&#45;&gt;8215418239835348239 -->
<g id="edge16" class="edge">
<title>&#45;6852177275488112386&#45;&gt;8215418239835348239</title>
<path fill="none" stroke="black" d="M1215.01,-108.48C1151.51,-118.61 1071.48,-131.37 1006.22,-141.78"/>
<polygon fill="black" stroke="black" points="1005.86,-138.29 996.54,-143.32 1006.96,-145.2 1005.86,-138.29"/>
</g>
<!-- &#45;5469406459450984469 -->
<g id="node16" class="node">
<title>&#45;5469406459450984469</title>
<polygon fill="none" stroke="black" points="1425.47,-36 1223.84,-36 1223.84,0 1425.47,0 1425.47,-36"/>
<text text-anchor="middle" x="1324.65" y="-12" font-family="Helvetica,sans-Serif" font-size="20.00">FromMapProjectable</text>
</g>
<!-- &#45;5469406459450984469&#45;&gt;&#45;6852177275488112386 -->
<g id="edge19" class="edge">
<title>&#45;5469406459450984469&#45;&gt;&#45;6852177275488112386</title>
<path fill="none" stroke="black" d="M1324.65,-36.3C1324.65,-43.59 1324.65,-52.27 1324.65,-60.46"/>
<polygon fill="black" stroke="black" points="1321.15,-60.38 1324.65,-70.38 1328.15,-60.38 1321.15,-60.38"/>
</g>
<!-- 4452683451816551630 -->
<g id="node17" class="node">
<title>4452683451816551630</title>
<polygon fill="none" stroke="black" points="723.37,-468 533.94,-468 533.94,-432 723.37,-432 723.37,-468"/>
<text text-anchor="middle" x="628.65" y="-444" font-family="Helvetica,sans-Serif" font-size="20.00">And(And, Between)</text>
</g>
<!-- 4452683451816551630&#45;&gt;&#45;7292558223011403078 -->
<g id="edge10" class="edge">
<title>4452683451816551630&#45;&gt;&#45;7292558223011403078</title>
<path fill="none" stroke="black" d="M628.65,-468.3C628.65,-475.59 628.65,-484.27 628.65,-492.46"/>
<polygon fill="black" stroke="black" points="625.15,-492.38 628.65,-502.38 632.15,-492.38 625.15,-492.38"/>
</g>
<!-- 153252813516215756 -->
<g id="node18" class="node">
<title>153252813516215756</title>
<polygon fill="none" stroke="black" points="628.7,-396 432.61,-396 432.61,-360 628.7,-360 628.7,-396"/>
<text text-anchor="middle" x="530.65" y="-372" font-family="Helvetica,sans-Serif" font-size="20.00">Between(Projection)</text>
</g>
<!-- 153252813516215756&#45;&gt;4452683451816551630 -->
<g id="edge20" class="edge">
<title>153252813516215756&#45;&gt;4452683451816551630</title>
<path fill="none" stroke="black" d="M555.13,-396.48C567.27,-405.15 582.1,-415.75 595.27,-425.15"/>
<polygon fill="black" stroke="black" points="593.09,-427.9 603.26,-430.86 597.15,-422.2 593.09,-427.9"/>
</g>
<!-- &#45;8641423358439902311&#45;&gt;153252813516215756 -->
<g id="edge22" class="edge">
<title>&#45;8641423358439902311&#45;&gt;153252813516215756</title>
<path fill="none" stroke="black" d="M530.65,-252.41C530.65,-276.39 530.65,-319.86 530.65,-348.58"/>
<polygon fill="black" stroke="black" points="527.15,-348.38 530.65,-358.38 534.15,-348.38 527.15,-348.38"/>
</g>
<!-- 7250786804072046526 -->
<g id="node20" class="node">
<title>7250786804072046526</title>
<polygon fill="none" stroke="black" points="878.5,-396 646.81,-396 646.81,-360 878.5,-360 878.5,-396"/>
<text text-anchor="middle" x="762.65" y="-372" font-family="Helvetica,sans-Serif" font-size="20.00">And(Between, Between)</text>
</g>
<!-- 7250786804072046526&#45;&gt;4452683451816551630 -->
<g id="edge21" class="edge">
<title>7250786804072046526&#45;&gt;4452683451816551630</title>
<path fill="none" stroke="black" d="M729.19,-396.48C711.79,-405.57 690.33,-416.78 671.7,-426.51"/>
<polygon fill="black" stroke="black" points="670.28,-423.31 663.04,-431.04 673.52,-429.51 670.28,-423.31"/>
</g>
<!-- 475215217536315870 -->
<g id="node21" class="node">
<title>475215217536315870</title>
<polygon fill="none" stroke="black" points="921.7,-324 725.61,-324 725.61,-288 921.7,-288 921.7,-324"/>
<text text-anchor="middle" x="823.65" y="-300" font-family="Helvetica,sans-Serif" font-size="20.00">Between(Projection)</text>
</g>
<!-- 475215217536315870&#45;&gt;7250786804072046526 -->
<g id="edge25" class="edge">
<title>475215217536315870&#45;&gt;7250786804072046526</title>
<path fill="none" stroke="black" d="M808.58,-324.3C801.48,-332.44 792.88,-342.31 785.05,-351.3"/>
<polygon fill="black" stroke="black" points="782.48,-348.92 778.55,-358.75 787.76,-353.51 782.48,-348.92"/>
</g>
<!-- 2436074204542269189&#45;&gt;475215217536315870 -->
<g id="edge26" class="edge">
<title>2436074204542269189&#45;&gt;475215217536315870</title>
<path fill="none" stroke="black" d="M870.33,-252.3C863.12,-260.44 854.38,-270.31 846.42,-279.3"/>
<polygon fill="black" stroke="black" points="843.82,-276.96 839.81,-286.76 849.06,-281.6 843.82,-276.96"/>
</g>
<!-- &#45;2497969730889547612 -->
<g id="node23" class="node">
<title>&#45;2497969730889547612</title>
<polygon fill="none" stroke="black" points="1205.7,-324 1009.61,-324 1009.61,-288 1205.7,-288 1205.7,-324"/>
<text text-anchor="middle" x="1107.65" y="-300" font-family="Helvetica,sans-Serif" font-size="20.00">Between(Projection)</text>
</g>
<!-- &#45;2497969730889547612&#45;&gt;7250786804072046526 -->
<g id="edge24" class="edge">
<title>&#45;2497969730889547612&#45;&gt;7250786804072046526</title>
<path fill="none" stroke="black" d="M1021.49,-324.48C972.31,-334.46 910.51,-347 859.63,-357.32"/>
<polygon fill="black" stroke="black" points="859.21,-353.84 850.1,-359.26 860.6,-360.7 859.21,-353.84"/>
</g>
<!-- &#45;6613341373772495771&#45;&gt;&#45;2497969730889547612 -->
<g id="edge28" class="edge">
<title>&#45;6613341373772495771&#45;&gt;&#45;2497969730889547612</title>
<path fill="none" stroke="black" d="M1205.94,-252.48C1189.01,-261.53 1168.14,-272.68 1149.99,-282.38"/>
<polygon fill="black" stroke="black" points="1148.46,-279.23 1141.29,-287.03 1151.76,-285.4 1148.46,-279.23"/>
</g>
<!-- &#45;3723205657272414697&#45;&gt;&#45;4909512051203717309 -->
<g id="edge9" class="edge">
<title>&#45;3723205657272414697&#45;&gt;&#45;4909512051203717309</title>
<path fill="none" stroke="black" d="M1387.78,-396.42C1248.62,-435.61 911.53,-530.53 762.54,-572.48"/>
<polygon fill="black" stroke="black" points="761.84,-569.04 753.17,-575.12 763.74,-575.77 761.84,-569.04"/>
</g>
<!-- 1408691136617704575 -->
<g id="node26" class="node">
<title>1408691136617704575</title>
<polygon fill="none" stroke="black" points="1040.7,-756 844.61,-756 844.61,-720 1040.7,-720 1040.7,-756"/>
<text text-anchor="middle" x="942.65" y="-732" font-family="Helvetica,sans-Serif" font-size="20.00">Between(Projection)</text>
</g>
<!-- 1408691136617704575&#45;&gt;&#45;3800977505275226627 -->
<g id="edge5" class="edge">
<title>1408691136617704575&#45;&gt;&#45;3800977505275226627</title>
<path fill="none" stroke="black" d="M879.46,-756.48C844.16,-766.25 800,-778.47 763.16,-788.66"/>
<polygon fill="black" stroke="black" points="762.64,-785.17 753.94,-791.21 764.51,-791.92 762.64,-785.17"/>
</g>
<!-- &#45;1645048277134544221&#45;&gt;1408691136617704575 -->
<g id="edge31" class="edge">
<title>&#45;1645048277134544221&#45;&gt;1408691136617704575</title>
<path fill="none" stroke="black" d="M972.01,-684.3C967.72,-692.02 962.55,-701.29 957.76,-709.89"/>
<polygon fill="black" stroke="black" points="954.73,-708.13 952.92,-718.57 960.85,-711.54 954.73,-708.13"/>
</g>
</g>
</svg>
